<svg width="267" height="199" viewBox="0 0 267 199" fill="none" xmlns="http://www.w3.org/2000/svg">
<path d="M133.5 198.947C190.682 198.947 237.037 196.241 237.037 192.902C237.037 189.564 190.682 186.857 133.5 186.857C76.318 186.857 29.9628 189.564 29.9628 192.902C29.9628 196.241 76.318 198.947 133.5 198.947Z" fill="#F5F5F5"/>
<path d="M167.43 188.507L163.148 188.443L162.16 178.5L166.448 178.564L167.43 188.507Z" fill="#FFB573"/>
<path d="M189.479 188.523H185.197L181.859 178.596H186.142L189.479 188.523Z" fill="#FFB573"/>
<path d="M184.625 188.027H189.848C189.933 188.027 190.016 188.056 190.083 188.109C190.15 188.163 190.197 188.237 190.216 188.32L191.06 192.133C191.081 192.226 191.081 192.322 191.059 192.414C191.037 192.507 190.995 192.593 190.934 192.666C190.874 192.74 190.798 192.798 190.711 192.837C190.624 192.876 190.53 192.895 190.435 192.891C188.753 192.865 187.525 192.763 185.41 192.763C184.107 192.763 180.177 192.902 178.377 192.902C176.578 192.902 176.343 191.124 177.08 190.958C180.38 190.238 182.868 189.244 183.926 188.288C184.12 188.12 184.368 188.027 184.625 188.027Z" fill="#263238"/>
<path d="M163.185 187.968L167.863 188.043C167.948 188.043 168.03 188.073 168.096 188.126C168.162 188.179 168.208 188.254 168.226 188.336L169.011 192.16C169.031 192.252 169.03 192.348 169.008 192.439C168.986 192.531 168.943 192.617 168.883 192.689C168.823 192.762 168.747 192.82 168.66 192.859C168.574 192.897 168.481 192.916 168.386 192.913C166.693 192.859 164.258 192.721 162.133 192.689C159.655 192.651 157.509 192.753 154.598 192.689C152.842 192.662 152.382 190.878 153.119 190.729C156.483 190.045 159.223 190.008 162.149 188.267C162.46 188.074 162.819 187.971 163.185 187.968Z" fill="#263238"/>
<path d="M165.818 60.7852C164.462 63.7943 162.952 66.7316 161.295 69.5855C160.467 71.0113 159.602 72.4264 158.662 73.8148C157.727 75.238 156.714 76.6089 155.629 77.9213L155.207 78.4232L154.993 78.6742C154.919 78.7597 154.871 78.8237 154.721 78.9786C154.109 79.6676 153.323 80.1802 152.446 80.4631C151.903 80.6334 151.331 80.6933 150.764 80.6393C150.264 80.5965 149.775 80.4702 149.317 80.2655C148.657 79.9657 148.055 79.5517 147.539 79.0427C146.807 78.3125 146.178 77.4861 145.67 76.5863C145.224 75.8145 144.819 75.0195 144.458 74.2046C143.139 71.121 142.151 67.9061 141.51 64.614L144.586 63.6581C145.243 65.0572 145.921 66.5044 146.631 67.8821C147.341 69.2598 148.067 70.6375 148.852 71.9031C149.221 72.5204 149.622 73.1176 150.054 73.692C150.393 74.1582 150.787 74.5814 151.229 74.9522C151.389 75.0751 151.512 75.1018 151.448 75.0484C151.358 75.0002 151.26 74.9694 151.159 74.9576C150.993 74.9384 150.824 74.9511 150.663 74.995C150.342 75.0964 150.294 75.1712 150.332 75.1018L150.924 74.2847C152.659 71.768 154.239 69.1484 155.656 66.4403C157.124 63.7115 158.555 60.86 159.896 58.0992L165.818 60.7852Z" fill="#FFB573"/>
<path d="M167.601 58.0992C168.755 62.0294 160.622 72.7468 160.622 72.7468L152.414 67.4709C153.961 64.0729 155.868 60.8504 158.101 57.8589C161.46 53.5495 166.33 53.7845 167.601 58.0992Z" fill="#285DC3"/>
<path opacity="0.2" d="M167.601 58.0992C168.755 62.0294 160.622 72.7468 160.622 72.7468L152.414 67.4709C153.961 64.0729 155.868 60.8504 158.101 57.8589C161.46 53.5495 166.33 53.7845 167.601 58.0992Z" fill="black"/>
<path opacity="0.2" d="M162.598 62.7129C160.91 63.4338 158.427 67.5189 157.135 70.5093L160.617 72.7468C162.562 70.1461 164.311 67.4045 165.85 64.5446C164.75 63.3377 163.489 62.3338 162.598 62.7129Z" fill="black"/>
<path d="M144.511 65.1961L145.579 60.3634L140.704 60.326C140.704 60.326 139.401 63.9572 142.023 65.666L144.511 65.1961Z" fill="#FFB573"/>
<path d="M145.008 55.835L141.099 57.2395L140.688 60.326L145.563 60.3634L145.008 55.835Z" fill="#FFB573"/>
<path opacity="0.2" d="M162.165 178.5L162.672 183.627L166.955 183.696L166.453 178.57L162.165 178.5Z" fill="black"/>
<path opacity="0.2" d="M186.142 178.602H181.859L183.579 183.717H187.867L186.142 178.602Z" fill="black"/>
<path d="M186.708 56.3584C182.089 72.64 183.023 89.9203 182.607 93.418C179.253 93.1777 166.624 92.2325 159.741 91.7198C156.74 67.3214 162.742 54.7884 162.742 54.7884C162.742 54.7884 164.216 54.5054 166.213 54.2971C166.838 54.233 167.516 54.1796 168.221 54.1423C168.61 54.1423 169.006 54.1049 169.406 54.0995C172.657 54.155 175.902 54.3957 179.125 54.8204C179.734 54.8952 180.353 54.9913 180.957 55.0874C181.56 55.1836 182.057 55.285 182.559 55.3865C184.908 55.8511 186.708 56.3584 186.708 56.3584Z" fill="#285DC3"/>
<path opacity="0.2" d="M186.708 56.3584C182.089 72.64 183.023 89.9203 182.607 93.418C179.253 93.1777 166.624 92.2325 159.741 91.7198C156.74 67.3214 162.742 54.7884 162.742 54.7884C162.742 54.7884 164.216 54.5054 166.213 54.2971C166.838 54.233 167.516 54.1796 168.221 54.1423C168.61 54.1423 169.006 54.1049 169.406 54.0995C172.657 54.155 175.902 54.3957 179.125 54.8204C179.734 54.8952 180.353 54.9913 180.957 55.0874C181.56 55.1836 182.057 55.285 182.559 55.3865C184.908 55.8511 186.708 56.3584 186.708 56.3584Z" fill="black"/>
<path opacity="0.2" d="M181.827 63.3431C181.416 64.9184 181.886 72.106 183.53 73.8789C183.755 71.5774 184.064 69.1744 184.449 66.718L181.827 63.3431Z" fill="black"/>
<path d="M178.975 43.788C178.132 46.8692 177.09 52.5563 179.125 54.8044C177.299 56.369 174.933 58.1526 171.211 58.0084C167.489 57.8642 168.322 55.3384 169.406 54.0835C172.952 53.5068 173.059 50.9116 172.61 48.4391L178.975 43.788Z" fill="#FFB573"/>
<path d="M178.783 53.934C178.783 53.934 177.245 56.4705 171.062 58.0138C172.087 58.9643 172.583 61.2178 172.583 61.2178C172.583 61.2178 180.652 59.274 180.407 54.735C179.914 54.379 179.365 54.1082 178.783 53.934Z" fill="#263238"/>
<path d="M168.861 60.6357C168.861 60.6357 169.673 58.6813 171.062 58.0138C170.415 57.3463 169.46 55.3438 170.026 53.8432C169.547 53.805 169.065 53.8355 168.594 53.934C168.594 53.934 166.149 57.0152 168.861 60.6357Z" fill="#263238"/>
<path d="M170.795 60.6944C170.725 61.111 170.479 61.4207 170.261 61.378C170.042 61.3352 169.908 60.9668 169.983 60.5503C170.058 60.1337 170.303 59.8187 170.517 59.8614C170.73 59.9041 170.88 60.2726 170.795 60.6944Z" fill="#263238"/>
<path d="M170.431 63.0974C170.394 63.5246 170.18 63.8504 169.951 63.829C169.721 63.8077 169.566 63.4499 169.604 63.028C169.641 62.6062 169.855 62.2751 170.084 62.2964C170.314 62.3178 170.469 62.6756 170.431 63.0974Z" fill="#263238"/>
<path opacity="0.2" d="M176.391 45.7051L172.653 48.4552C172.765 49.0305 172.822 49.6152 172.824 50.2013C174.175 50.1052 176.113 48.7809 176.359 47.3978C176.468 46.8397 176.478 46.2669 176.391 45.7051Z" fill="black"/>
<path d="M170.399 32.1522C167.067 32.0774 166.394 40.1301 168.557 41.5345C170.72 42.939 176.637 32.2857 170.399 32.1522Z" fill="#263238"/>
<path d="M179.696 39.1262C179.125 43.3394 179.002 45.8386 176.701 47.8517C173.24 50.8795 168.157 48.5513 167.462 44.2526C166.838 40.3811 167.879 34.1386 172.151 32.7609C173.091 32.4522 174.094 32.389 175.066 32.5776C176.037 32.7661 176.944 33.1999 177.7 33.8379C178.456 34.4759 179.037 35.2967 179.386 36.2223C179.736 37.148 179.842 38.1476 179.696 39.1262Z" fill="#FFB573"/>
<path d="M179.093 43.254C176.957 44.3807 174.49 32.7182 180.161 33.3269C187.284 34.0852 183.381 41.0059 179.093 43.254Z" fill="#263238"/>
<path d="M169.582 33.3002C169.582 35.9115 178.057 38.5067 180.962 37.615C183.867 36.7232 184.598 34.411 183.039 32.809C180.401 30.0482 169.582 28.1845 169.582 33.3002Z" fill="#263238"/>
<path d="M169.924 33.642C170.12 34.5058 170.542 35.302 171.147 35.9489C170.389 35.9062 169.636 34.8328 169.395 34.208C169.155 33.5833 169.924 33.642 169.924 33.642Z" fill="#263238"/>
<path d="M181.261 43.9375C180.947 44.3653 180.553 44.727 180.099 45.0019C179.645 45.2768 179.142 45.4595 178.618 45.5395C177.213 45.7424 176.695 44.4395 177.24 43.2113C177.731 42.1059 179.05 40.6694 180.385 41.0326C181.72 41.3957 182.03 42.8749 181.261 43.9375Z" fill="#FFB573"/>
<path d="M161.081 182.628L168.338 182.74C168.338 182.74 165.914 154.07 166.571 140.73C166.768 136.672 167.585 130.996 168.653 124.913C170.01 117.245 170.661 114.191 172.391 104.504C173.641 97.5938 174.751 92.8572 174.751 92.8572L159.719 91.7358C159.719 91.7358 153.365 126.275 153.514 139.374C153.664 152.954 161.081 182.628 161.081 182.628Z" fill="#263238"/>
<path opacity="0.2" d="M169.481 101.994C166.779 108.722 166.725 124.486 167.97 128.924C168.183 127.61 168.413 126.254 168.653 124.897C170.01 117.229 170.661 114.175 172.391 104.488C172.423 104.296 172.461 104.109 172.493 103.922C171.607 103.11 170.588 102.458 169.481 101.994Z" fill="black"/>
<path d="M167.852 92.3233C167.852 92.3233 169.177 128.47 170.186 140.987C171.286 154.7 181.56 182.724 181.56 182.724H189.41C189.41 182.724 184.171 157.092 182.564 143.742C180.732 128.577 182.596 93.4073 182.596 93.4073L167.852 92.3233Z" fill="#263238"/>
<path d="M180.625 182.895H189.869V180.134L179.536 179.953L180.625 182.895Z" fill="#285DC3"/>
<path d="M160.168 182.767L168.813 182.9L168.856 180.108L159.191 179.808L160.168 182.767Z" fill="#285DC3"/>
<path d="M173.187 39.8311C173.16 40.1782 172.957 40.4452 172.733 40.4238C172.509 40.4024 172.343 40.1141 172.37 39.7723C172.397 39.4306 172.599 39.1636 172.824 39.1796C173.048 39.1956 173.214 39.516 173.187 39.8311Z" fill="#263238"/>
<path d="M169.278 39.5427C169.278 39.8898 169.048 40.1514 168.824 40.1354C168.6 40.1194 168.44 39.8257 168.461 39.4839C168.482 39.1422 168.691 38.8698 168.92 38.8859C169.15 38.9019 169.315 39.1956 169.278 39.5427Z" fill="#263238"/>
<path d="M170.517 39.8044C170.026 40.8286 169.397 41.7808 168.648 42.6346C168.868 42.8169 169.126 42.9495 169.402 43.0233C169.679 43.097 169.968 43.1101 170.25 43.0618L170.517 39.8044Z" fill="#ED893E"/>
<path d="M171.66 44.0924C172.047 44.077 172.428 43.9818 172.777 43.8127C173.126 43.6437 173.436 43.4044 173.689 43.1098C173.698 43.1004 173.706 43.0891 173.711 43.0768C173.716 43.0644 173.719 43.0511 173.719 43.0377C173.719 43.0243 173.716 43.011 173.711 42.9987C173.706 42.9863 173.698 42.9751 173.689 42.9656C173.669 42.9476 173.643 42.9376 173.617 42.9376C173.59 42.9376 173.564 42.9476 173.545 42.9656C173.258 43.287 172.9 43.5363 172.499 43.6931C172.098 43.8499 171.666 43.9099 171.238 43.8681C171.212 43.8666 171.186 43.8752 171.166 43.8921C171.146 43.909 171.134 43.9329 171.131 43.9589C171.129 43.9722 171.131 43.9857 171.134 43.9986C171.138 44.0115 171.145 44.0235 171.153 44.0339C171.161 44.0443 171.172 44.053 171.184 44.0593C171.195 44.0657 171.208 44.0697 171.222 44.071C171.367 44.0881 171.513 44.0953 171.66 44.0924Z" fill="#263238"/>
<path d="M174.484 38.6616C174.519 38.6609 174.553 38.6497 174.581 38.6296C174.603 38.6155 174.622 38.597 174.638 38.5753C174.653 38.5536 174.663 38.5291 174.669 38.5032C174.674 38.4773 174.674 38.4505 174.669 38.4245C174.664 38.3986 174.654 38.3738 174.639 38.3519C174.47 38.0741 174.236 37.8416 173.957 37.6742C173.678 37.5068 173.362 37.4095 173.037 37.3907C172.984 37.3907 172.932 37.4121 172.894 37.4501C172.856 37.4882 172.834 37.5398 172.834 37.5936C172.834 37.6474 172.856 37.699 172.894 37.7371C172.932 37.7751 172.984 37.7965 173.037 37.7965C173.291 37.8173 173.537 37.8984 173.753 38.0331C173.97 38.1677 174.151 38.3521 174.282 38.5708C174.303 38.6041 174.333 38.6304 174.369 38.6465C174.406 38.6626 174.445 38.6679 174.484 38.6616Z" fill="#263238"/>
<path d="M167.708 38.0796C167.742 38.0769 167.774 38.0664 167.803 38.0487C167.832 38.0311 167.856 38.0069 167.874 37.9781C167.994 37.7525 168.168 37.5592 168.378 37.4142C168.589 37.2693 168.832 37.177 169.086 37.1451C169.112 37.1437 169.138 37.1371 169.162 37.1255C169.186 37.114 169.207 37.0978 169.224 37.0778C169.242 37.0579 169.255 37.0347 169.263 37.0095C169.272 36.9844 169.275 36.9578 169.273 36.9315C169.272 36.905 169.266 36.879 169.255 36.855C169.244 36.8309 169.229 36.8092 169.209 36.7913C169.19 36.7734 169.167 36.7595 169.142 36.7506C169.117 36.7416 169.091 36.7378 169.064 36.7392C168.744 36.7767 168.437 36.8897 168.169 37.0689C167.901 37.248 167.679 37.4883 167.521 37.7698C167.508 37.793 167.499 37.8185 167.496 37.845C167.492 37.8715 167.494 37.8984 167.501 37.9242C167.508 37.95 167.52 37.9742 167.536 37.9953C167.552 38.0165 167.573 38.0342 167.596 38.0475C167.63 38.0679 167.668 38.0789 167.708 38.0796Z" fill="#263238"/>
<path d="M183.205 188.78C183.583 188.769 183.959 188.717 184.326 188.625C184.346 188.62 184.365 188.609 184.379 188.594C184.393 188.579 184.403 188.56 184.406 188.539C184.408 188.52 184.404 188.5 184.396 188.482C184.387 188.464 184.374 188.449 184.358 188.438C184.203 188.342 182.82 187.493 182.345 187.733C182.292 187.761 182.248 187.802 182.217 187.853C182.186 187.904 182.17 187.962 182.169 188.021C182.159 188.121 182.173 188.222 182.21 188.314C182.248 188.407 182.307 188.49 182.382 188.555C182.624 188.72 182.913 188.799 183.205 188.78ZM184.032 188.481C183.306 188.625 182.745 188.598 182.511 188.401C182.459 188.356 182.419 188.3 182.395 188.237C182.371 188.173 182.363 188.105 182.372 188.037C182.37 188.013 182.375 187.989 182.387 187.967C182.398 187.945 182.415 187.927 182.436 187.915C182.681 187.786 183.472 188.155 184.032 188.502V188.481Z" fill="#285DC3"/>
<path d="M184.305 188.625C184.322 188.63 184.341 188.63 184.358 188.625C184.373 188.615 184.385 188.601 184.394 188.586C184.402 188.57 184.406 188.552 184.406 188.534C184.406 188.481 184.299 187.242 183.803 186.836C183.744 186.784 183.675 186.746 183.601 186.724C183.526 186.702 183.447 186.696 183.37 186.708C183.294 186.706 183.219 186.732 183.16 186.779C183.1 186.827 183.06 186.895 183.045 186.969C182.954 187.45 183.813 188.39 184.257 188.63L184.305 188.625ZM183.44 186.9C183.525 186.899 183.607 186.932 183.669 186.991C183.971 187.375 184.148 187.843 184.177 188.331C183.739 187.995 183.189 187.263 183.242 187.007C183.242 186.98 183.242 186.916 183.392 186.9H183.44Z" fill="#285DC3"/>
<path d="M162.753 188.534C162.771 188.527 162.787 188.516 162.799 188.501C162.811 188.486 162.819 188.468 162.822 188.449C162.824 188.428 162.82 188.408 162.811 188.39C162.801 188.371 162.787 188.357 162.769 188.347C162.576 188.24 160.867 187.343 160.344 187.621C160.295 187.648 160.253 187.687 160.223 187.735C160.194 187.783 160.176 187.837 160.173 187.893C160.161 187.985 160.171 188.077 160.203 188.164C160.234 188.251 160.286 188.328 160.355 188.39C160.814 188.812 162.048 188.662 162.742 188.534H162.753ZM160.478 187.786C160.798 187.68 161.727 188.048 162.405 188.385C161.455 188.529 160.75 188.475 160.488 188.24C160.444 188.198 160.41 188.147 160.39 188.089C160.369 188.031 160.363 187.97 160.371 187.909C160.371 187.887 160.378 187.865 160.39 187.846C160.402 187.827 160.42 187.812 160.44 187.802L160.478 187.786Z" fill="#285DC3"/>
<path d="M162.753 188.534H162.779C162.794 188.525 162.807 188.511 162.814 188.495C162.822 188.479 162.825 188.461 162.822 188.443C162.822 188.395 162.72 187.236 162.181 186.783C162.109 186.718 162.024 186.669 161.933 186.637C161.841 186.606 161.744 186.594 161.647 186.601C161.364 186.601 161.284 186.761 161.263 186.879C161.177 187.359 162.186 188.304 162.699 188.545C162.717 188.545 162.736 188.542 162.753 188.534ZM161.535 186.804H161.642C161.716 186.797 161.791 186.806 161.862 186.83C161.933 186.854 161.998 186.892 162.053 186.943C162.364 187.32 162.55 187.785 162.587 188.272C162.053 187.947 161.38 187.204 161.428 186.916C161.444 186.9 161.45 186.831 161.535 186.804Z" fill="#285DC3"/>
<path d="M187.808 59.0284C189.303 62.0294 190.643 65.0305 191.877 68.1064C192.502 69.6443 193.078 71.2089 193.644 72.7842C193.922 73.5799 194.178 74.3862 194.445 75.1765L194.638 75.78L194.846 76.4742C194.995 76.9494 195.081 77.4247 195.193 77.8946C195.782 81.4905 195.615 85.1698 194.702 88.6974C194.306 90.3721 193.805 92.0201 193.201 93.6316C192.897 94.4326 192.571 95.2336 192.224 95.9972C191.877 96.7608 191.524 97.5298 191.092 98.3308L188.139 97.0492C188.55 95.5914 188.967 94.016 189.26 92.4835C189.554 90.9509 189.826 89.4023 189.997 87.875C190.166 86.3755 190.226 84.8657 190.179 83.3574C190.15 81.9453 189.953 80.5416 189.591 79.1762C189.49 78.8611 189.41 78.53 189.287 78.231C189.223 78.0761 189.186 77.948 189.105 77.7611L188.881 77.2271C188.582 76.4955 188.256 75.7639 187.947 75.0323C187.322 73.5585 186.644 72.1007 185.992 70.6322L181.96 61.8586L187.808 59.0284Z" fill="#FFB573"/>
<path d="M186.708 56.3583C190.617 57.5865 194.461 70.8458 194.461 70.8458L185.415 74.8027C185.415 74.8027 182.489 68.3947 180.802 63.3751C178.97 57.9016 181.966 54.8738 186.708 56.3583Z" fill="#285DC3"/>
<path opacity="0.2" d="M186.708 56.3583C190.617 57.5865 194.461 70.8458 194.461 70.8458L185.415 74.8027C185.415 74.8027 182.489 68.3947 180.802 63.3751C178.97 57.9016 181.966 54.8738 186.708 56.3583Z" fill="black"/>
<path d="M188.379 96.3283L186.27 100.136L191.241 101.428C191.241 101.428 192.742 97.738 190.969 96.5632L188.379 96.3283Z" fill="#FFB573"/>
<path d="M185.901 104.456L190.467 104.835L191.241 101.428L186.27 100.136L185.901 104.456Z" fill="#FFB573"/>
<path opacity="0.19" d="M158.464 125.1H45.4807L53.448 12.1218H166.432L158.464 125.1Z" fill="#285DC3"/>
<path opacity="0.2" d="M70.9365 125.1H54.6869L95.1694 12.1218H111.419L70.9365 125.1Z" fill="white"/>
<path opacity="0.2" d="M110.404 125.1H74.5624L115.045 12.1218H150.887L110.404 125.1Z" fill="white"/>
<path d="M53.7471 31.4152L50.4363 31.1803L51.8994 10.4611H72.624V13.7825H54.9913L53.7471 31.4152Z" fill="#285DC3"/>
<path d="M64.6567 126.761H43.6972L45.1764 105.812L48.4872 106.047L47.259 123.439H64.6567V126.761Z" fill="#285DC3"/>
<path d="M166.731 31.4152L163.425 31.1803L164.648 13.7825H147.25V10.4611H168.21L166.731 31.4152Z" fill="#285DC3"/>
<path d="M160.008 126.761H139.283V123.439H156.916L158.16 105.812L161.471 106.047L160.008 126.761Z" fill="#285DC3"/>
<g opacity="0.3">
<path d="M103.729 108.439C103.631 108.437 103.534 108.414 103.446 108.37C103.414 108.37 102.629 107.921 101.31 107.11C100.776 106.773 100.104 106.362 99.372 105.898C97.0491 104.386 94.8116 102.795 92.713 101.166C92.179 100.771 91.6984 100.365 91.1804 99.9488C89.2474 98.3468 87.4424 96.7768 85.8725 95.2175C85.4666 94.8117 85.0661 94.4058 84.6656 93.9893C83.2075 92.488 81.8381 90.9029 80.5645 89.2421C80.2548 88.8416 79.9558 88.4304 79.6621 88.0139C78.576 86.5002 77.6067 84.906 76.7624 83.2453C76.5595 82.8448 76.3566 82.4229 76.1697 82.001C75.4685 80.4566 74.9212 78.8468 74.5357 77.195C74.4395 76.8159 74.3541 76.4047 74.2793 75.9455C74.2206 75.6464 74.1725 75.3314 74.1352 75.0217C73.9696 73.7988 73.8308 72.5546 73.6973 71.2089C73.6546 70.8084 73.6172 70.4026 73.5798 70.0021C73.441 68.4001 73.3235 66.8354 73.238 65.2762V65.148C73.238 64.7956 73.1953 64.4431 73.1793 64.08C73.1045 62.5421 73.0511 60.9561 73.0191 59.3648V58.1526C73.0191 56.4705 73.0191 54.8845 73.0191 53.4374C73.0191 53.0315 73.0191 52.6257 73.0458 52.2252C73.0832 50.4844 73.1419 48.8984 73.2113 47.51V47.4192C73.2113 47.0347 73.2434 46.6609 73.2647 46.2925C73.3609 44.573 73.473 42.9443 73.5905 41.5772C73.6279 41.1127 73.6599 40.7175 73.6973 40.3651C73.8201 39.0194 73.9109 38.2664 73.9109 38.2664C73.9219 38.1285 73.9817 37.9989 74.0795 37.9011C74.1774 37.8032 74.3069 37.7434 74.4449 37.7324C74.541 37.7324 84.3933 36.9688 94.8864 35.1212C97.0224 34.7474 99.0836 34.3415 101.038 33.9197C103.916 33.2896 106.549 32.606 108.872 31.8851C108.988 31.8479 109.113 31.8479 109.23 31.8851C111.446 32.6114 113.982 33.2949 116.77 33.9197C118.665 34.3469 120.673 34.7474 122.751 35.1212C132.982 36.9688 142.727 37.7271 142.824 37.7324C142.972 37.7447 143.111 37.8136 143.21 37.9249C143.309 38.0362 143.362 38.1814 143.358 38.3305C143.358 38.3305 143.358 39.0781 143.277 40.4291C143.277 40.7869 143.24 41.1928 143.213 41.6413C143.133 43.0137 143.016 44.6424 142.872 46.3565C142.84 46.6983 142.808 47.0401 142.776 47.3978V47.5741C142.653 48.9678 142.482 50.5538 142.279 52.2839C142.231 52.6951 142.183 53.0956 142.129 53.5015C141.948 54.9539 141.729 56.5399 141.473 58.2113L141.291 59.4182C141.035 61.0202 140.757 62.6222 140.469 64.1387C140.405 64.4805 140.335 64.8276 140.266 65.1747L140.228 65.3563C139.924 66.9049 139.588 68.4962 139.224 70.0715L138.936 71.289C138.61 72.6347 138.295 73.8789 137.964 75.0964C137.873 75.4115 137.783 75.7212 137.686 76.0309C137.542 76.4848 137.403 76.8907 137.254 77.2751C136.628 78.9418 135.856 80.5501 134.947 82.0811C134.707 82.4923 134.45 82.9088 134.183 83.3147C133.102 84.9774 131.913 86.5669 130.622 88.0726C130.269 88.4838 129.917 88.895 129.554 89.2955C128.05 90.9553 126.464 92.5379 124.801 94.0374C124.342 94.4504 123.883 94.8562 123.423 95.2549C121.613 96.8142 119.611 98.4002 117.459 99.9808C116.882 100.397 116.316 100.803 115.755 101.198C113.427 102.827 110.949 104.402 108.439 105.924C107.638 106.389 106.928 106.8 106.303 107.136C104.872 107.943 104.028 108.375 103.996 108.391C103.912 108.428 103.821 108.444 103.729 108.439ZM75.0163 38.8752C74.9789 39.2276 74.9255 39.7616 74.8614 40.4772C74.824 40.8296 74.792 41.2195 74.7599 41.6467C74.6425 43.0351 74.5303 44.6531 74.4342 46.3672C74.4342 46.7303 74.3968 47.0988 74.3755 47.4833V47.5741C74.3007 48.9518 74.2473 50.5271 74.2099 52.2572C74.2099 52.6524 74.2099 53.0529 74.1832 53.4587C74.1832 54.9005 74.1832 56.4758 74.1832 58.1419V59.3541C74.2153 60.9294 74.2687 62.5047 74.3434 64.0266C74.3434 64.379 74.3755 64.7261 74.3968 65.0946V65.2548C74.4823 66.7981 74.5944 68.3734 74.7332 69.9326C74.7706 70.3331 74.808 70.7336 74.8507 71.1341C74.9789 72.4638 75.1231 73.7027 75.2833 74.9095C75.3206 75.2032 75.3634 75.4969 75.4168 75.7853C75.4915 76.2232 75.5716 76.6023 75.6624 76.9654C76.0328 78.5436 76.5568 80.0818 77.227 81.5578C77.4086 81.9583 77.5955 82.3588 77.7931 82.7433C78.6117 84.3532 79.5506 85.8991 80.6019 87.3677C80.8903 87.7682 81.1786 88.1687 81.483 88.5586C82.7307 90.1836 84.0696 91.7365 85.4933 93.2097C85.8885 93.6155 86.2837 94.016 86.6842 94.4112C88.2434 95.9438 90.0003 97.5084 91.9067 99.0677C92.4407 99.4789 92.9213 99.8793 93.4232 100.275C95.4898 101.877 97.6952 103.452 99.9914 104.942C100.712 105.401 101.358 105.807 101.908 106.138C102.758 106.672 103.388 107.024 103.724 107.206C104.082 107.019 104.792 106.672 105.711 106.138C106.314 105.801 107.014 105.396 107.804 104.931C110.303 103.441 112.738 101.871 115.04 100.258C115.574 99.8687 116.156 99.4682 116.727 99.0517C118.863 97.4924 120.833 95.9277 122.601 94.3898C123.055 93.9947 123.509 93.5942 123.957 93.183C125.594 91.7107 127.155 90.1565 128.635 88.5265C128.993 88.1314 129.34 87.7362 129.703 87.3357C130.962 85.8699 132.122 84.3214 133.174 82.7006C133.436 82.3054 133.708 81.9049 133.911 81.5098C134.798 80.0412 135.554 78.4973 136.17 76.896C136.314 76.5275 136.448 76.1431 136.581 75.7105C136.677 75.4168 136.763 75.1178 136.843 74.8241C137.174 73.6172 137.489 72.3837 137.809 71.0487C137.911 70.6482 138.002 70.2477 138.098 69.8472C138.455 68.2826 138.792 66.7073 139.091 65.1694L139.128 64.9825C139.198 64.6407 139.262 64.2989 139.326 63.9572C139.614 62.4406 139.892 60.8653 140.143 59.274L140.33 58.0725C140.581 56.4118 140.8 54.8365 140.981 53.3893C141.035 52.9888 141.077 52.5937 141.125 52.1985C141.328 50.4683 141.499 48.893 141.622 47.5046V47.3284C141.654 46.976 141.686 46.6289 141.713 46.2925C141.857 44.5943 141.975 42.9763 142.049 41.6146C142.076 41.1661 142.097 40.7656 142.119 40.4078C142.145 39.7563 142.167 39.2437 142.177 38.8966C139.956 38.7043 131.433 37.9193 122.548 36.3173C120.454 35.9382 118.43 35.5324 116.519 35.1052C113.769 34.4857 111.259 33.8129 109.043 33.0973C106.731 33.8129 104.125 34.4857 101.284 35.1052C99.3186 35.5324 97.236 35.9382 95.0893 36.3173C85.8671 37.914 77.1362 38.699 75.0163 38.8752Z" fill="#285DC3"/>
<path d="M111.978 62.3858C114.862 59.6022 115.095 55.1662 112.5 52.4779C109.905 49.7895 105.464 49.8667 102.58 52.6504C99.6964 55.4341 99.4627 59.87 102.058 62.5584C104.653 65.2468 109.095 65.1695 111.978 62.3858Z" fill="#285DC3"/>
<path d="M108.818 59.9628H107.104H105.396L100.557 82.5297H110.474L108.818 59.9628Z" fill="#285DC3"/>
<g opacity="0.2">
<path d="M122.644 35.7139H94.9879C97.0384 35.3508 99.1157 34.9503 101.161 34.5017H116.647C118.628 34.9503 120.647 35.3508 122.644 35.7139Z" fill="#285DC3"/>
<path d="M142.631 41.6199H74.1725C74.2046 41.1714 74.2366 40.7709 74.274 40.4077H142.695C142.679 40.7709 142.658 41.1714 142.631 41.6199Z" fill="#285DC3"/>
<path d="M142.29 46.3138C142.257 46.709 142.22 47.1148 142.183 47.5313H73.788C73.788 47.1148 73.8254 46.709 73.8468 46.3138H142.29Z" fill="#285DC3"/>
<path d="M141.686 52.2252C141.638 52.6257 141.59 53.0315 141.537 53.4374H73.5958C73.5958 53.0315 73.5958 52.6257 73.6225 52.2252H141.686Z" fill="#285DC3"/>
<path d="M140.885 58.1366C140.821 58.5371 140.762 58.9376 140.698 59.3434H73.6012C73.6012 58.9376 73.6012 58.5371 73.6012 58.1366H140.885Z" fill="#285DC3"/>
<path d="M139.908 64.0426L139.668 65.2548H73.8254C73.8254 64.8489 73.7774 64.4431 73.7614 64.0426H139.908Z" fill="#285DC3"/>
<path d="M138.642 69.954L138.354 71.1608H74.274C74.2313 70.7603 74.1939 70.3545 74.1565 69.954H138.642Z" fill="#285DC3"/>
<path d="M137.115 75.86C136.987 76.2659 136.848 76.6717 136.693 77.0722H75.1071C75.0056 76.6717 74.9255 76.2659 74.8561 75.86H137.115Z" fill="#285DC3"/>
<path d="M134.429 81.7661C134.194 82.1719 133.938 82.5831 133.682 82.9782H77.2858C77.0829 82.5831 76.8907 82.1719 76.7091 81.7661H134.429Z" fill="#285DC3"/>
<path d="M130.162 87.6774C129.815 88.0833 129.468 88.4891 129.094 88.8843H81.0345C80.7248 88.4891 80.4311 88.0833 80.1427 87.6774H130.162Z" fill="#285DC3"/>
<path d="M124.385 93.5835C123.931 93.9946 123.477 94.4005 123.017 94.7956H86.2836C85.8831 94.4005 85.4826 93.9946 85.0875 93.5835H124.385Z" fill="#285DC3"/>
<path d="M117.09 99.4895C116.513 99.906 115.953 100.312 115.392 100.702H93.0761C92.5742 100.312 92.0669 99.906 91.5489 99.4895H117.09Z" fill="#285DC3"/>
<path d="M108.119 105.401C107.323 105.865 106.618 106.271 106.015 106.608H101.62C101.086 106.271 100.413 105.865 99.6871 105.401H108.119Z" fill="#285DC3"/>
</g>
</g>
</svg>
